<mxfile host="app.diagrams.net" modified="2024-03-01T02:36:22.097Z" agent="Mozilla/5.0 (Windows NT 10.0; Win64; x64) AppleWebKit/537.36 (KHTML, like Gecko) Chrome/121.0.0.0 Safari/537.36 Edg/121.0.0.0" version="23.1.8" etag="erxC6GQYBixoIVh6Y_8K" type="github">
  <diagram name="第 1 页" id="FzpiULaVg1AIal5A511A">
    <mxGraphModel>
      <root>
        <mxCell id="0" />
        <mxCell id="1" parent="0" />
      </root>
    </mxGraphModel>
  </diagram>
</mxfile>
